999
dxflib 2.2.0.0
  0
SECTION
  2
HEADER
  9
$ACADVER
  1
AC1015
  9
$HANDSEED
  5
FFFF
  9
$DIMASZ
 40
2.5
  9
$PLIMMIN
 10
0.0
 20
0.0
  9
$DIMEXE
 40
1.25
  9
$DIMGAP
 40
0.625
  9
$PLIMMAX
 10
210.0
 20
297.0
  9
$INSUNITS
 70
4
  9
$DIMEXO
 40
0.625
  9
$DIMTXT
 40
2.5
  9
$CLAYER
  8
cut
  0
ENDSEC
  0
SECTION
  2
TABLES
  0
TABLE
  2
VPORT
  5
8
100
AcDbSymbolTable
 70
1
  0
VPORT
  5
30
100
AcDbSymbolTableRecord
100
AcDbViewportTableRecord
  2
*Active
 70
0
 10
0.0
 20
0.0
 11
1.0
 21
1.0
 12
286.3055555555554861
 22
148.5
 13
0.0
 23
0.0
 14
10.0
 24
10.0
 15
10.0
 25
10.0
 16
0.0
 26
0.0
 36
1.0
 17
0.0
 27
0.0
 37
0.0
 40
297.0
 41
1.92798353909465
 42
50.0
 43
0.0
 44
0.0
 50
0.0
 51
0.0
 71
0
 72
100
 73
1
 74
3
 75
1
 76
1
 77
0
 78
0
281
0
 65
1
110
0.0
120
0.0
130
0.0
111
1.0
121
0.0
131
0.0
112
0.0
122
1.0
132
0.0
 79
0
146
0.0
  0
ENDTAB
  0
TABLE
  2
LTYPE
  5
5
100
AcDbSymbolTable
 70
21
  0
LTYPE
  5
14
100
AcDbSymbolTableRecord
100
AcDbLinetypeTableRecord
  2
ByBlock
 70
0
  3

 72
65
 73
0
 40
0.0
  0
LTYPE
  5
15
100
AcDbSymbolTableRecord
100
AcDbLinetypeTableRecord
  2
ByLayer
 70
0
  3

 72
65
 73
0
 40
0.0
  0
LTYPE
  5
16
100
AcDbSymbolTableRecord
100
AcDbLinetypeTableRecord
  2
CONTINUOUS
 70
0
  3
Solid line
 72
65
 73
0
 40
0.0
  0
LTYPE
  5
31
100
AcDbSymbolTableRecord
100
AcDbLinetypeTableRecord
  2
DOT
 70
0
  3
Dot . . . . . . . . . . . . . . . . . . . . . .
 72
65
 73
2
 40
6.3499999999999996
 49
0.0
 74
0
 49
-6.3499999999999996
 74
0
  0
LTYPE
  5
32
100
AcDbSymbolTableRecord
100
AcDbLinetypeTableRecord
  2
DOT2
 70
0
  3
Dot (.5x) .....................................
 72
65
 73
2
 40
3.1749999999999998
 49
0.0
 74
0
 49
-3.1749999999999998
 74
0
  0
LTYPE
  5
33
100
AcDbSymbolTableRecord
100
AcDbLinetypeTableRecord
  2
DOTX2
 70
0
  3
Dot (2x) .  .  .  .  .  .  .  .  .  .  .  .  .
 72
65
 73
2
 40
12.6999999999999993
 49
0.0
 74
0
 49
-12.6999999999999993
 74
0
  0
LTYPE
  5
34
100
AcDbSymbolTableRecord
100
AcDbLinetypeTableRecord
  2
DASHED
 70
0
  3
Dashed __ __ __ __ __ __ __ __ __ __ __ __ __ _
 72
65
 73
2
 40
19.0500000000000007
 49
12.6999999999999993
 74
0
 49
-6.3499999999999996
 74
0
  0
LTYPE
  5
35
100
AcDbSymbolTableRecord
100
AcDbLinetypeTableRecord
  2
DASHED2
 70
0
  3
Dashed (.5x) _ _ _ _ _ _ _ _ _ _ _ _ _ _ _ _ _
 72
65
 73
2
 40
9.5250000000000004
 49
6.3499999999999996
 74
0
 49
-3.1749999999999998
 74
0
  0
LTYPE
  5
36
100
AcDbSymbolTableRecord
100
AcDbLinetypeTableRecord
  2
DASHEDX2
 70
0
  3
Dashed (2x) ____  ____  ____  ____  ____  ___
 72
65
 73
2
 40
38.1000000000000014
 49
25.3999999999999986
 74
0
 49
-12.6999999999999993
 74
0
  0
LTYPE
  5
37
100
AcDbSymbolTableRecord
100
AcDbLinetypeTableRecord
  2
DASHDOT
 70
0
  3
Dash dot __ . __ . __ . __ . __ . __ . __ . __
 72
65
 73
4
 40
25.3999999999999986
 49
12.6999999999999993
 74
0
 49
-6.3499999999999996
 74
0
 49
0.0
 74
0
 49
-6.3499999999999996
 74
0
  0
LTYPE
  5
38
100
AcDbSymbolTableRecord
100
AcDbLinetypeTableRecord
  2
DASHDOT2
 70
0
  3
Dash dot (.5x) _._._._._._._._._._._._._._._.
 72
65
 73
4
 40
12.6999999999999993
 49
6.3499999999999996
 74
0
 49
-3.1749999999999998
 74
0
 49
0.0
 74
0
 49
-3.1749999999999998
 74
0
  0
LTYPE
  5
39
100
AcDbSymbolTableRecord
100
AcDbLinetypeTableRecord
  2
DASHDOTX2
 70
0
  3
Dash dot (2x) ____  .  ____  .  ____  .  ___
 72
65
 73
4
 40
50.7999999999999972
 49
25.3999999999999986
 74
0
 49
-12.6999999999999993
 74
0
 49
0.0
 74
0
 49
-12.6999999999999993
 74
0
  0
LTYPE
  5
3A
100
AcDbSymbolTableRecord
100
AcDbLinetypeTableRecord
  2
DIVIDE
 70
0
  3
Divide ____ . . ____ . . ____ . . ____ . . ____
 72
65
 73
6
 40
31.75
 49
12.6999999999999993
 74
0
 49
-6.3499999999999996
 74
0
 49
0.0
 74
0
 49
-6.3499999999999996
 74
0
 49
0.0
 74
0
 49
-6.3499999999999996
 74
0
  0
LTYPE
  5
3B
100
AcDbSymbolTableRecord
100
AcDbLinetypeTableRecord
  2
DIVIDE2
 70
0
  3
Divide (.5x) __..__..__..__..__..__..__..__.._
 72
65
 73
6
 40
15.875
 49
6.3499999999999996
 74
0
 49
-3.1749999999999998
 74
0
 49
0.0
 74
0
 49
-3.1749999999999998
 74
0
 49
0.0
 74
0
 49
-3.1749999999999998
 74
0
  0
LTYPE
  5
3C
100
AcDbSymbolTableRecord
100
AcDbLinetypeTableRecord
  2
DIVIDEX2
 70
0
  3
Divide (2x) ________  .  .  ________  .  .  _
 72
65
 73
6
 40
63.5
 49
25.3999999999999986
 74
0
 49
-12.6999999999999993
 74
0
 49
0.0
 74
0
 49
-12.6999999999999993
 74
0
 49
0.0
 74
0
 49
-12.6999999999999993
 74
0
  0
LTYPE
  5
3D
100
AcDbSymbolTableRecord
100
AcDbLinetypeTableRecord
  2
CENTER
 70
0
  3
Center ____ _ ____ _ ____ _ ____ _ ____ _ ____
 72
65
 73
4
 40
50.7999999999999972
 49
31.75
 74
0
 49
-6.3499999999999996
 74
0
 49
6.3499999999999996
 74
0
 49
-6.3499999999999996
 74
0
  0
LTYPE
  5
3E
100
AcDbSymbolTableRecord
100
AcDbLinetypeTableRecord
  2
CENTER2
 70
0
  3
Center (.5x) ___ _ ___ _ ___ _ ___ _ ___ _ ___
 72
65
 73
4
 40
28.5749999999999993
 49
19.0500000000000007
 74
0
 49
-3.1749999999999998
 74
0
 49
3.1749999999999998
 74
0
 49
-3.1749999999999998
 74
0
  0
LTYPE
  5
3F
100
AcDbSymbolTableRecord
100
AcDbLinetypeTableRecord
  2
CENTERX2
 70
0
  3
Center (2x) ________  __  ________  __  _____
 72
65
 73
4
 40
101.5999999999999943
 49
63.5
 74
0
 49
-12.6999999999999993
 74
0
 49
12.6999999999999993
 74
0
 49
-12.6999999999999993
 74
0
  0
LTYPE
  5
40
100
AcDbSymbolTableRecord
100
AcDbLinetypeTableRecord
  2
BORDER
 70
0
  3
Border __ __ . __ __ . __ __ . __ __ . __ __ .
 72
65
 73
6
 40
44.4500000000000028
 49
12.6999999999999993
 74
0
 49
-6.3499999999999996
 74
0
 49
12.6999999999999993
 74
0
 49
-6.3499999999999996
 74
0
 49
0.0
 74
0
 49
-6.3499999999999996
 74
0
  0
LTYPE
  5
41
100
AcDbSymbolTableRecord
100
AcDbLinetypeTableRecord
  2
BORDER2
 70
0
  3
Border (.5x) __.__.__.__.__.__.__.__.__.__.__.
 72
65
 73
6
 40
22.2250000000000014
 49
6.3499999999999996
 74
0
 49
-3.1749999999999998
 74
0
 49
6.3499999999999996
 74
0
 49
-3.1749999999999998
 74
0
 49
0.0
 74
0
 49
-3.1749999999999998
 74
0
  0
LTYPE
  5
42
100
AcDbSymbolTableRecord
100
AcDbLinetypeTableRecord
  2
BORDERX2
 70
0
  3
Border (2x) ____  ____  .  ____  ____  .  ___
 72
65
 73
6
 40
88.9000000000000057
 49
25.3999999999999986
 74
0
 49
-12.6999999999999993
 74
0
 49
25.3999999999999986
 74
0
 49
-12.6999999999999993
 74
0
 49
0.0
 74
0
 49
-12.6999999999999993
 74
0
  0
ENDTAB
  0
TABLE
  2
LAYER
  5
2
100
AcDbSymbolTable
 70
2
  0
LAYER
  5
10
100
AcDbSymbolTableRecord
100
AcDbLayerTableRecord
  2
0
 70
0
 62
7
420
0
  6
CONTINUOUS
370
25
390
F
  0
LAYER
  5
43
100
AcDbSymbolTableRecord
100
AcDbLayerTableRecord
  2
cut
 70
0
 62
1
420
16711680
  6
CONTINUOUS
370
0
390
F
  0
ENDTAB
  0
TABLE
  2
STYLE
  5
3
100
AcDbSymbolTable
 70
1
  0
STYLE
  5
11
100
AcDbSymbolTableRecord
100
AcDbTextStyleTableRecord
  2
Standard
 70
0
 40
0.0
 41
0.75
 50
0.0
 71
0
 42
2.5
  3
txt
  4

  0
ENDTAB
  0
TABLE
  2
VIEW
  5
6
100
AcDbSymbolTable
 70
0
  0
ENDTAB
  0
TABLE
  2
UCS
  5
7
100
AcDbSymbolTable
 70
0
  0
ENDTAB
  0
TABLE
  2
APPID
  5
9
100
AcDbSymbolTable
 70
1
  0
APPID
  5
12
100
AcDbSymbolTableRecord
100
AcDbRegAppTableRecord
  2
ACAD
 70
0
  0
ENDTAB
  0
TABLE
  2
DIMSTYLE
  5
A
100
AcDbSymbolTable
 70
1
100
AcDbDimStyleTable
 71
0
  0
DIMSTYLE
105
27
100
AcDbSymbolTableRecord
100
AcDbDimStyleTableRecord
  2
Standard
 41
2.5
 42
0.625
 43
3.75
 44
1.25
 70
0
 73
0
 74
0
 77
1
 78
8
140
2.5
141
2.5
143
0.03937007874016
147
0.625
171
3
172
1
271
2
272
2
274
3
278
44
283
0
284
8
340
11
  0
ENDTAB
  0
TABLE
  2
BLOCK_RECORD
  5
1
100
AcDbSymbolTable
 70
1
  0
BLOCK_RECORD
  5
1F
100
AcDbSymbolTableRecord
100
AcDbBlockTableRecord
  2
*Model_Space
340
22
  0
BLOCK_RECORD
  5
1B
100
AcDbSymbolTableRecord
100
AcDbBlockTableRecord
  2
*Paper_Space
340
1E
  0
BLOCK_RECORD
  5
23
100
AcDbSymbolTableRecord
100
AcDbBlockTableRecord
  2
*Paper_Space0
340
26
  0
ENDTAB
  0
ENDSEC
  0
SECTION
  2
BLOCKS
  0
BLOCK
  5
20
100
AcDbEntity
  8
0
100
AcDbBlockBegin
  2
*Model_Space
 70
0
 10
0.0
 20
0.0
 30
0.0
  3
*Model_Space
  1

  0
ENDBLK
  5
21
100
AcDbEntity
  8
0
100
AcDbBlockEnd
  0
BLOCK
  5
1C
100
AcDbEntity
 67
1
  8
0
100
AcDbBlockBegin
  2
*Paper_Space
 70
0
 10
0.0
 20
0.0
 30
0.0
  3
*Paper_Space
  1

  0
ENDBLK
  5
1D
100
AcDbEntity
 67
1
  8
0
100
AcDbBlockEnd
  0
BLOCK
  5
24
100
AcDbEntity
  8
0
100
AcDbBlockBegin
  2
*Paper_Space0
 70
0
 10
0.0
 20
0.0
 30
0.0
  3
*Paper_Space0
  1

  0
ENDBLK
  5
25
100
AcDbEntity
  8
0
100
AcDbBlockEnd
  0
ENDSEC
  0
SECTION
  2
ENTITIES
  0
CIRCLE
  5
44
100
AcDbEntity
100
AcDbCircle
  8
0
 62
256
370
-1
  6
ByLayer
 10
50.0
 20
60.0
 30
0.0
 40
0.0
  0
CIRCLE
  5
45
100
AcDbEntity
100
AcDbCircle
  8
0
 62
256
370
-1
  6
ByLayer
 10
90.0
 20
60.0
 30
0.0
 40
0.0
  0
CIRCLE
  5
46
100
AcDbEntity
100
AcDbCircle
  8
0
 62
256
370
-1
  6
ByLayer
 10
90.0
 20
60.0
 30
0.0
 40
0.0
  0
CIRCLE
  5
47
100
AcDbEntity
100
AcDbCircle
  8
cut
 62
256
370
-1
  6
ByLayer
 10
33.6543294843023091
 20
71.4636562289887678
 30
0.0
 40
2.5
  0
CIRCLE
  5
48
100
AcDbEntity
100
AcDbCircle
  8
cut
 62
256
370
-1
  6
ByLayer
 10
36.9734441289490263
 20
82.2358802941171518
 30
0.0
 40
2.5
  0
CIRCLE
  5
49
100
AcDbEntity
100
AcDbCircle
  8
cut
 62
256
370
-1
  6
ByLayer
 10
42.3303395780850877
 20
92.1535919495679252
 30
0.0
 40
2.5
  0
CIRCLE
  5
4A
100
AcDbEntity
100
AcDbCircle
  8
cut
 62
256
370
-1
  6
ByLayer
 10
32.5
 20
60.0
 30
0.0
 40
2.5
  0
CIRCLE
  5
4B
100
AcDbEntity
100
AcDbCircle
  8
cut
 62
256
370
-1
  6
ByLayer
 10
33.604846376814244
 20
48.7823064840726275
 30
0.0
 40
2.5
  0
CIRCLE
  5
4C
100
AcDbEntity
100
AcDbCircle
  8
cut
 62
256
370
-1
  6
ByLayer
 10
36.8769268806010118
 20
37.9957026390073409
 30
0.0
 40
2.5
  0
CIRCLE
  5
4D
100
AcDbEntity
100
AcDbCircle
  8
cut
 62
256
370
-1
  6
ByLayer
 10
42.190497292603645
 20
28.0547116013728797
 30
0.0
 40
2.5
  0
CIRCLE
  5
4E
100
AcDbEntity
100
AcDbCircle
  8
cut
 62
256
370
-1
  6
ByLayer
 10
49.3413600817735087
 20
19.3413600817735229
 30
0.0
 40
2.5
  0
CIRCLE
  5
4F
100
AcDbEntity
100
AcDbCircle
  8
cut
 62
256
370
-1
  6
ByLayer
 10
58.0547116013728726
 20
12.1904972926036521
 30
0.0
 40
2.5
  0
CIRCLE
  5
50
100
AcDbEntity
100
AcDbCircle
  8
cut
 62
256
370
-1
  6
ByLayer
 10
67.9957026390073338
 20
6.8769268806010118
 30
0.0
 40
2.5
  0
CIRCLE
  5
51
100
AcDbEntity
100
AcDbCircle
  8
cut
 62
256
370
-1
  6
ByLayer
 10
78.7823064840726204
 20
3.6048463768142516
 30
0.0
 40
2.5
  0
CIRCLE
  5
52
100
AcDbEntity
100
AcDbCircle
  8
cut
 62
256
370
-1
  6
ByLayer
 10
89.9999999999999716
 20
2.5000000000000009
 30
0.0
 40
2.5
  0
CIRCLE
  5
53
100
AcDbEntity
100
AcDbCircle
  8
cut
 62
256
370
-1
  6
ByLayer
 10
101.2176935159273228
 20
3.6048463768142422
 30
0.0
 40
2.5
  0
CIRCLE
  5
54
100
AcDbEntity
100
AcDbCircle
  8
cut
 62
256
370
-1
  6
ByLayer
 10
111.772295497764901
 20
6.7814210189899384
 30
0.0
 40
2.5
  0
CIRCLE
  5
55
100
AcDbEntity
100
AcDbCircle
  8
cut
 62
256
370
-1
  6
ByLayer
 10
121.7363766554433369
 20
12.0515652311378219
 30
0.0
 40
2.5
  0
CIRCLE
  5
56
100
AcDbEntity
100
AcDbCircle
  8
cut
 62
256
370
-1
  6
ByLayer
 10
130.4808466562181479
 20
19.1643409016610669
 30
0.0
 40
2.5
  0
CIRCLE
  5
57
100
AcDbEntity
100
AcDbCircle
  8
cut
 62
256
370
-1
  6
ByLayer
 10
137.6696604219148696
 20
27.846408050432025
 30
0.0
 40
2.5
  0
CIRCLE
  5
58
100
AcDbEntity
100
AcDbCircle
  8
cut
 62
256
370
-1
  6
ByLayer
 10
143.0265558710509595
 20
37.7641197058827487
 30
0.0
 40
2.5
  0
CIRCLE
  5
59
100
AcDbEntity
100
AcDbCircle
  8
cut
 62
256
370
-1
  6
ByLayer
 10
146.3456705156976909
 20
48.5363437710111043
 30
0.0
 40
2.5
  0
CIRCLE
  5
5A
100
AcDbEntity
100
AcDbCircle
  8
cut
 62
256
370
-1
  6
ByLayer
 10
147.5
 20
60.0
 30
0.0
 40
2.5
  0
CIRCLE
  5
5B
100
AcDbEntity
100
AcDbCircle
  8
cut
 62
256
370
-1
  6
ByLayer
 10
146.3951536231857347
 20
71.2176935159273796
 30
0.0
 40
2.5
  0
CIRCLE
  5
5C
100
AcDbEntity
100
AcDbCircle
  8
cut
 62
256
370
-1
  6
ByLayer
 10
143.1230731193989811
 20
82.0042973609926662
 30
0.0
 40
2.5
  0
CIRCLE
  5
5D
100
AcDbEntity
100
AcDbCircle
  8
cut
 62
256
370
-1
  6
ByLayer
 10
137.8095027073963479
 20
91.9452883986271274
 30
0.0
 40
2.5
  0
CIRCLE
  5
5E
100
AcDbEntity
100
AcDbCircle
  8
cut
 62
256
370
-1
  6
ByLayer
 10
49.5191533437818094
 20
100.8356590983389083
 30
0.0
 40
2.5
  0
CIRCLE
  5
5F
100
AcDbEntity
100
AcDbCircle
  8
cut
 62
256
370
-1
  6
ByLayer
 10
58.263623344556656
 20
107.9484347688621568
 30
0.0
 40
2.5
  0
CIRCLE
  5
60
100
AcDbEntity
100
AcDbCircle
  8
cut
 62
256
370
-1
  6
ByLayer
 10
68.227704502235099
 20
113.2185789810100403
 30
0.0
 40
2.5
  0
CIRCLE
  5
61
100
AcDbEntity
100
AcDbCircle
  8
cut
 62
256
370
-1
  6
ByLayer
 10
78.782306484072592
 20
116.3951536231857489
 30
0.0
 40
2.5
  0
CIRCLE
  5
62
100
AcDbEntity
100
AcDbCircle
  8
cut
 62
256
370
-1
  6
ByLayer
 10
89.9999999999999716
 20
117.5
 30
0.0
 40
2.5
  0
CIRCLE
  5
63
100
AcDbEntity
100
AcDbCircle
  8
cut
 62
256
370
-1
  6
ByLayer
 10
101.2176935159273796
 20
116.3951536231857347
 30
0.0
 40
2.5
  0
CIRCLE
  5
64
100
AcDbEntity
100
AcDbCircle
  8
cut
 62
256
370
-1
  6
ByLayer
 10
112.0042973609926662
 20
113.1230731193990096
 30
0.0
 40
2.5
  0
CIRCLE
  5
65
100
AcDbEntity
100
AcDbCircle
  8
cut
 62
256
370
-1
  6
ByLayer
 10
121.9452883986271274
 20
107.8095027073963479
 30
0.0
 40
2.5
  0
CIRCLE
  5
66
100
AcDbEntity
100
AcDbCircle
  8
cut
 62
256
370
-1
  6
ByLayer
 10
130.6586399182264699
 20
100.6586399182264842
 30
0.0
 40
2.5
  0
CIRCLE
  5
67
100
AcDbEntity
100
AcDbCircle
  8
cut
 62
256
370
-1
  6
ByLayer
 10
90.0
 20
60.0
 30
0.0
 40
70.0
  0
CIRCLE
  5
68
100
AcDbEntity
100
AcDbCircle
  8
cut
 62
256
370
-1
  6
ByLayer
 10
90.0
 20
60.0
 30
0.0
 40
6.0
  0
CIRCLE
  5
69
100
AcDbEntity
100
AcDbCircle
  8
cut
 62
256
370
-1
  6
ByLayer
 10
77.0000000000000284
 20
82.5166604983954244
 30
0.0
 40
2.5
  0
CIRCLE
  5
6A
100
AcDbEntity
100
AcDbCircle
  8
cut
 62
256
370
-1
  6
ByLayer
 10
81.9655581462513538
 20
84.7274694236740942
 30
0.0
 40
2.5
  0
CIRCLE
  5
6B
100
AcDbEntity
100
AcDbCircle
  8
cut
 62
256
370
-1
  6
ByLayer
 10
87.2822599550410132
 20
85.8575692795751024
 30
0.0
 40
2.5
  0
CIRCLE
  5
6C
100
AcDbEntity
100
AcDbCircle
  8
cut
 62
256
370
-1
  6
ByLayer
 10
92.7177400449589584
 20
85.8575692795750456
 30
0.0
 40
2.5
  0
CIRCLE
  5
6D
100
AcDbEntity
100
AcDbCircle
  8
cut
 62
256
370
-1
  6
ByLayer
 10
98.0344418537486177
 20
84.7274694236739947
 30
0.0
 40
2.5
  0
CIRCLE
  5
6E
100
AcDbEntity
100
AcDbCircle
  8
cut
 62
256
370
-1
  6
ByLayer
 10
103.0
 20
82.516660498395396
 30
0.0
 40
2.5
  0
CIRCLE
  5
6F
100
AcDbEntity
100
AcDbCircle
  8
cut
 62
256
370
-1
  6
ByLayer
 10
107.397395765330316
 20
79.3217654624122588
 30
0.0
 40
2.5
  0
CIRCLE
  5
70
100
AcDbEntity
100
AcDbCircle
  8
cut
 62
256
370
-1
  6
ByLayer
 10
111.034441853748632
 20
75.2824165596043002
 30
0.0
 40
2.5
  0
CIRCLE
  5
71
100
AcDbEntity
100
AcDbCircle
  8
cut
 62
256
370
-1
  6
ByLayer
 10
113.7521818987076188
 20
70.5751527199708022
 30
0.0
 40
2.5
  0
CIRCLE
  5
72
100
AcDbEntity
100
AcDbCircle
  8
cut
 62
256
370
-1
  6
ByLayer
 10
115.4318376190789479
 20
65.4057039612617359
 30
0.0
 40
2.5
  0
CIRCLE
  5
73
100
AcDbEntity
100
AcDbCircle
  8
cut
 62
256
370
-1
  6
ByLayer
 10
116.0000000000000142
 20
60.0000000000000284
 30
0.0
 40
2.5
  0
CIRCLE
  5
74
100
AcDbEntity
100
AcDbCircle
  8
cut
 62
256
370
-1
  6
ByLayer
 10
115.4318376190788626
 20
54.5942960387382428
 30
0.0
 40
2.5
  0
CIRCLE
  5
75
100
AcDbEntity
100
AcDbCircle
  8
cut
 62
256
370
-1
  6
ByLayer
 10
113.7521818987075619
 20
49.4248472800291765
 30
0.0
 40
2.5
  0
CIRCLE
  5
76
100
AcDbEntity
100
AcDbCircle
  8
cut
 62
256
370
-1
  6
ByLayer
 10
111.0344418537486035
 20
44.7175834403956429
 30
0.0
 40
2.5
  0
CIRCLE
  5
77
100
AcDbEntity
100
AcDbCircle
  8
cut
 62
256
370
-1
  6
ByLayer
 10
107.3973957653302875
 20
40.6782345375878123
 30
0.0
 40
2.5
  0
CIRCLE
  5
78
100
AcDbEntity
100
AcDbCircle
  8
cut
 62
256
370
-1
  6
ByLayer
 10
103.0000000000000142
 20
37.4833395016045969
 30
0.0
 40
2.5
  0
CIRCLE
  5
79
100
AcDbEntity
100
AcDbCircle
  8
cut
 62
256
370
-1
  6
ByLayer
 10
98.0344418537486177
 20
35.2725305763261048
 30
0.0
 40
2.5
  0
CIRCLE
  5
7A
100
AcDbEntity
100
AcDbCircle
  8
cut
 62
256
370
-1
  6
ByLayer
 10
92.7177400449589868
 20
34.1424307204248905
 30
0.0
 40
2.5
  0
CIRCLE
  5
7B
100
AcDbEntity
100
AcDbCircle
  8
cut
 62
256
370
-1
  6
ByLayer
 10
87.2822599550409848
 20
34.1424307204248407
 30
0.0
 40
2.5
  0
CIRCLE
  5
7C
100
AcDbEntity
100
AcDbCircle
  8
cut
 62
256
370
-1
  6
ByLayer
 10
81.9655581462513538
 20
35.2725305763260053
 30
0.0
 40
2.5
  0
CIRCLE
  5
7D
100
AcDbEntity
100
AcDbCircle
  8
cut
 62
256
370
-1
  6
ByLayer
 10
77.0
 20
37.4833395016045969
 30
0.0
 40
2.5
  0
CIRCLE
  5
7E
100
AcDbEntity
100
AcDbCircle
  8
cut
 62
256
370
-1
  6
ByLayer
 10
72.602604234669684
 20
40.6782345375877554
 30
0.0
 40
2.5
  0
CIRCLE
  5
7F
100
AcDbEntity
100
AcDbCircle
  8
cut
 62
256
370
-1
  6
ByLayer
 10
68.965558146251368
 20
44.7175834403956998
 30
0.0
 40
2.5
  0
CIRCLE
  5
80
100
AcDbEntity
100
AcDbCircle
  8
cut
 62
256
370
-1
  6
ByLayer
 10
66.2478181012923812
 20
49.4248472800291978
 30
0.0
 40
2.5
  0
CIRCLE
  5
81
100
AcDbEntity
100
AcDbCircle
  8
cut
 62
256
370
-1
  6
ByLayer
 10
64.5681623809210521
 20
54.594296038738257
 30
0.0
 40
2.5
  0
CIRCLE
  5
82
100
AcDbEntity
100
AcDbCircle
  8
cut
 62
256
370
-1
  6
ByLayer
 10
64.0000000000000142
 20
60.0000000000000355
 30
0.0
 40
2.5
  0
CIRCLE
  5
83
100
AcDbEntity
100
AcDbCircle
  8
cut
 62
256
370
-1
  6
ByLayer
 10
64.5681623809209668
 20
65.4057039612617217
 30
0.0
 40
2.5
  0
CIRCLE
  5
84
100
AcDbEntity
100
AcDbCircle
  8
cut
 62
256
370
-1
  6
ByLayer
 10
66.2478181012923102
 20
70.5751527199707738
 30
0.0
 40
2.5
  0
CIRCLE
  5
85
100
AcDbEntity
100
AcDbCircle
  8
cut
 62
256
370
-1
  6
ByLayer
 10
68.9655581462513396
 20
75.2824165596042576
 30
0.0
 40
2.5
  0
CIRCLE
  5
86
100
AcDbEntity
100
AcDbCircle
  8
cut
 62
256
370
-1
  6
ByLayer
 10
72.602604234669684
 20
79.3217654624123156
 30
0.0
 40
2.5
  0
CIRCLE
  5
87
100
AcDbEntity
100
AcDbCircle
  8
cut
 62
256
370
-1
  6
ByLayer
 10
90.0
 20
60.0
 30
0.0
 40
29.0
  0
CIRCLE
  5
88
100
AcDbEntity
100
AcDbCircle
  8
cut
 62
256
370
-1
  6
ByLayer
 10
78.2442949541505612
 20
76.1803398874989455
 30
0.0
 40
2.5
  0
CIRCLE
  5
89
100
AcDbEntity
100
AcDbCircle
  8
cut
 62
256
370
-1
  6
ByLayer
 10
83.8196601125010545
 20
79.0211303259030728
 30
0.0
 40
2.5
  0
CIRCLE
  5
8A
100
AcDbEntity
100
AcDbCircle
  8
cut
 62
256
370
-1
  6
ByLayer
 10
90.0
 20
80.0
 30
0.0
 40
2.5
  0
CIRCLE
  5
8B
100
AcDbEntity
100
AcDbCircle
  8
cut
 62
256
370
-1
  6
ByLayer
 10
101.7557050458494388
 20
76.1803398874989171
 30
0.0
 40
2.5
  0
CIRCLE
  5
8C
100
AcDbEntity
100
AcDbCircle
  8
cut
 62
256
370
-1
  6
ByLayer
 10
106.1803398874989455
 20
71.755705045849453
 30
0.0
 40
2.5
  0
CIRCLE
  5
8D
100
AcDbEntity
100
AcDbCircle
  8
cut
 62
256
370
-1
  6
ByLayer
 10
109.0211303259030728
 20
66.1803398874989455
 30
0.0
 40
2.5
  0
CIRCLE
  5
8E
100
AcDbEntity
100
AcDbCircle
  8
cut
 62
256
370
-1
  6
ByLayer
 10
110.0
 20
60.0000000000000213
 30
0.0
 40
2.5
  0
CIRCLE
  5
8F
100
AcDbEntity
100
AcDbCircle
  8
cut
 62
256
370
-1
  6
ByLayer
 10
109.0211303259030728
 20
53.8196601125010474
 30
0.0
 40
2.5
  0
CIRCLE
  5
90
100
AcDbEntity
100
AcDbCircle
  8
cut
 62
256
370
-1
  6
ByLayer
 10
73.8196601125010687
 20
71.7557050458494672
 30
0.0
 40
2.5
  0
CIRCLE
  5
91
100
AcDbEntity
100
AcDbCircle
  8
cut
 62
256
370
-1
  6
ByLayer
 10
70.9788696740969272
 20
66.1803398874989455
 30
0.0
 40
2.5
  0
CIRCLE
  5
92
100
AcDbEntity
100
AcDbCircle
  8
cut
 62
256
370
-1
  6
ByLayer
 10
70.0
 20
60.0000000000000284
 30
0.0
 40
2.5
  0
CIRCLE
  5
93
100
AcDbEntity
100
AcDbCircle
  8
cut
 62
256
370
-1
  6
ByLayer
 10
70.9788696740969272
 20
53.8196601125010545
 30
0.0
 40
2.5
  0
CIRCLE
  5
94
100
AcDbEntity
100
AcDbCircle
  8
cut
 62
256
370
-1
  6
ByLayer
 10
73.8196601125010545
 20
48.2442949541505328
 30
0.0
 40
2.5
  0
CIRCLE
  5
95
100
AcDbEntity
100
AcDbCircle
  8
cut
 62
256
370
-1
  6
ByLayer
 10
78.2442949541505044
 20
43.8196601125010261
 30
0.0
 40
2.5
  0
CIRCLE
  5
96
100
AcDbEntity
100
AcDbCircle
  8
cut
 62
256
370
-1
  6
ByLayer
 10
90.0
 20
40.0
 30
0.0
 40
2.5
  0
CIRCLE
  5
97
100
AcDbEntity
100
AcDbCircle
  8
cut
 62
256
370
-1
  6
ByLayer
 10
96.1803398874989455
 20
40.9788696740969272
 30
0.0
 40
2.5
  0
CIRCLE
  5
98
100
AcDbEntity
100
AcDbCircle
  8
cut
 62
256
370
-1
  6
ByLayer
 10
101.7557050458494814
 20
43.8196601125010545
 30
0.0
 40
2.5
  0
CIRCLE
  5
99
100
AcDbEntity
100
AcDbCircle
  8
cut
 62
256
370
-1
  6
ByLayer
 10
106.1803398874989597
 20
48.2442949541505399
 30
0.0
 40
2.5
  0
CIRCLE
  5
9A
100
AcDbEntity
100
AcDbCircle
  8
cut
 62
256
370
-1
  6
ByLayer
 10
96.1803398874989455
 20
79.0211303259030728
 30
0.0
 40
2.5
  0
CIRCLE
  5
9B
100
AcDbEntity
100
AcDbCircle
  8
cut
 62
256
370
-1
  6
ByLayer
 10
83.8196601125010545
 20
40.9788696740969272
 30
0.0
 40
2.5
  0
CIRCLE
  5
9C
100
AcDbEntity
100
AcDbCircle
  8
cut
 62
256
370
-1
  6
ByLayer
 10
85.5
 20
67.794228634059948
 30
0.0
 40
2.5
  0
CIRCLE
  5
9D
100
AcDbEntity
100
AcDbCircle
  8
cut
 62
256
370
-1
  6
ByLayer
 10
81.5427664129268237
 20
63.0781812899310239
 30
0.0
 40
2.5
  0
CIRCLE
  5
9E
100
AcDbEntity
100
AcDbCircle
  8
cut
 62
256
370
-1
  6
ByLayer
 10
91.5628335990023743
 20
68.8632697771098776
 30
0.0
 40
2.5
  0
CIRCLE
  5
9F
100
AcDbEntity
100
AcDbCircle
  8
cut
 62
256
370
-1
  6
ByLayer
 10
96.894399988070802
 20
65.7850884871788537
 30
0.0
 40
2.5
  0
CIRCLE
  5
A0
100
AcDbEntity
100
AcDbCircle
  8
cut
 62
256
370
-1
  6
ByLayer
 10
99.0
 20
60.0
 30
0.0
 40
2.5
  0
CIRCLE
  5
A1
100
AcDbEntity
100
AcDbCircle
  8
cut
 62
256
370
-1
  6
ByLayer
 10
96.8943999880707452
 20
54.2149115128212244
 30
0.0
 40
2.5
  0
CIRCLE
  5
A2
100
AcDbEntity
100
AcDbCircle
  8
cut
 62
256
370
-1
  6
ByLayer
 10
91.5628335990023317
 20
51.1367302228901295
 30
0.0
 40
2.5
  0
CIRCLE
  5
A3
100
AcDbEntity
100
AcDbCircle
  8
cut
 62
256
370
-1
  6
ByLayer
 10
85.5
 20
52.2057713659400733
 30
0.0
 40
2.5
  0
CIRCLE
  5
A4
100
AcDbEntity
100
AcDbCircle
  8
cut
 62
256
370
-1
  6
ByLayer
 10
81.5427664129268237
 20
56.9218187100689903
 30
0.0
 40
2.5
  0
CIRCLE
  5
A5
100
AcDbEntity
100
AcDbCircle
  8
cut
 62
256
370
-1
  6
ByLayer
 10
76.0532742267156294
 20
58.7798196015327932
 30
0.0
 40
2.5
  0
CIRCLE
  5
A6
100
AcDbEntity
100
AcDbCircle
  8
cut
 62
256
370
-1
  6
ByLayer
 10
77.581848335504958
 20
53.5355194147095546
 30
0.0
 40
2.5
  0
CIRCLE
  5
A7
100
AcDbEntity
100
AcDbCircle
  8
cut
 62
256
370
-1
  6
ByLayer
 10
81.0009734643884656
 20
49.2753777963343609
 30
0.0
 40
2.5
  0
CIRCLE
  5
A8
100
AcDbEntity
100
AcDbCircle
  8
cut
 62
256
370
-1
  6
ByLayer
 10
85.7901188069401854
 20
46.6479626895248529
 30
0.0
 40
2.5
  0
CIRCLE
  5
A9
100
AcDbEntity
100
AcDbCircle
  8
cut
 62
256
370
-1
  6
ByLayer
 10
91.2201803984671784
 20
46.0532742267155584
 30
0.0
 40
2.5
  0
CIRCLE
  5
AA
100
AcDbEntity
100
AcDbCircle
  8
cut
 62
256
370
-1
  6
ByLayer
 10
96.4102348116374088
 20
47.5537600191996574
 30
0.0
 40
2.5
  0
CIRCLE
  5
AB
100
AcDbEntity
100
AcDbCircle
  8
cut
 62
256
370
-1
  6
ByLayer
 10
100.6852545769554155
 20
50.9542642849984588
 30
0.0
 40
2.5
  0
CIRCLE
  5
AC
100
AcDbEntity
100
AcDbCircle
  8
cut
 62
256
370
-1
  6
ByLayer
 10
103.3335411950059495
 20
55.7318998136077681
 30
0.0
 40
2.5
  0
CIRCLE
  5
AD
100
AcDbEntity
100
AcDbCircle
  8
cut
 62
256
370
-1
  6
ByLayer
 10
103.9467257732844985
 20
61.220180398467221
 30
0.0
 40
2.5
  0
CIRCLE
  5
AE
100
AcDbEntity
100
AcDbCircle
  8
cut
 62
256
370
-1
  6
ByLayer
 10
102.4181516644951557
 20
66.4644805852905023
 30
0.0
 40
2.5
  0
CIRCLE
  5
AF
100
AcDbEntity
100
AcDbCircle
  8
cut
 62
256
370
-1
  6
ByLayer
 10
98.9990265356115913
 20
70.7246222036657315
 30
0.0
 40
2.5
  0
CIRCLE
  5
B0
100
AcDbEntity
100
AcDbCircle
  8
cut
 62
256
370
-1
  6
ByLayer
 10
94.2098811930598288
 20
73.3520373104751968
 30
0.0
 40
2.5
  0
CIRCLE
  5
B1
100
AcDbEntity
100
AcDbCircle
  8
cut
 62
256
370
-1
  6
ByLayer
 10
88.7798196015327648
 20
73.9467257732844416
 30
0.0
 40
2.5
  0
CIRCLE
  5
B2
100
AcDbEntity
100
AcDbCircle
  8
cut
 62
256
370
-1
  6
ByLayer
 10
83.5897651883626196
 20
72.4462399808002857
 30
0.0
 40
2.5
  0
CIRCLE
  5
B3
100
AcDbEntity
100
AcDbCircle
  8
cut
 62
256
370
-1
  6
ByLayer
 10
79.3147454230446272
 20
69.0457357150014559
 30
0.0
 40
2.5
  0
CIRCLE
  5
B4
100
AcDbEntity
100
AcDbCircle
  8
cut
 62
256
370
-1
  6
ByLayer
 10
76.66645880499415
 20
64.2681001863920898
 30
0.0
 40
2.5
  0
ENDSEC
  0
SECTION
  2
OBJECTS
  0
DICTIONARY
  5
C
100
AcDbDictionary
280
0
281
1
  3
ACAD_GROUP
350
D
  3
ACAD_LAYOUT
350
1A
  3
ACAD_MLINESTYLE
350
17
  3
ACAD_PLOTSETTINGS
350
19
  3
ACAD_PLOTSTYLENAME
350
E
  3
AcDbVariableDictionary
350
B5
  0
DICTIONARY
  5
D
100
AcDbDictionary
280
0
281
1
  0
ACDBDICTIONARYWDFLT
  5
E
100
AcDbDictionary
281
1
  3
Normal
350
F
100
AcDbDictionaryWithDefault
340
F
  0
ACDBPLACEHOLDER
  5
F
  0
DICTIONARY
  5
17
100
AcDbDictionary
280
0
281
1
  3
Standard
350
18
  0
MLINESTYLE
  5
18
100
AcDbMlineStyle
  2
STANDARD
 70
0
  3

 62
256
 51
90.0
 52
90.0
 71
2
 49
0.5
 62
256
  6
BYLAYER
 49
-0.5
 62
256
  6
BYLAYER
  0
DICTIONARY
  5
19
100
AcDbDictionary
280
0
281
1
  0
DICTIONARY
  5
1A
100
AcDbDictionary
281
1
  3
Layout1
350
1E
  3
Layout2
350
26
  3
Model
350
22
  0
LAYOUT
  5
1E
100
AcDbPlotSettings
  1

  2
C:\Program Files\AutoCAD 2002\plotters\DWF ePlot (optimized for plotting).pc3
  4

  6

 40
0.0
 41
0.0
 42
0.0
 43
0.0
 44
0.0
 45
0.0
 46
0.0
 47
0.0
 48
0.0
 49
0.0
140
0.0
141
0.0
142
1.0
143
1.0
 70
688
 72
0
 73
0
 74
5
  7

 75
16
147
1.0
148
0.0
149
0.0
100
AcDbLayout
  1
Layout1
 70
1
 71
1
 10
0.0
 20
0.0
 11
420.0
 21
297.0
 12
0.0
 22
0.0
 32
0.0
 14
100000000000000000000.0
 24
100000000000000000000.0
 34
100000000000000000000.0
 15
-100000000000000000000.0
 25
-100000000000000000000.0
 35
-100000000000000000000.0
146
0.0
 13
0.0
 23
0.0
 33
0.0
 16
1.0
 26
0.0
 36
0.0
 17
0.0
 27
1.0
 37
0.0
 76
0
330
1B
  0
LAYOUT
  5
22
100
AcDbPlotSettings
  1

  2
C:\Program Files\AutoCAD 2002\plotters\DWF ePlot (optimized for plotting).pc3
  4

  6

 40
0.0
 41
0.0
 42
0.0
 43
0.0
 44
0.0
 45
0.0
 46
0.0
 47
0.0
 48
0.0
 49
0.0
140
0.0
141
0.0
142
1.0
143
1.0
 70
1712
 72
0
 73
0
 74
0
  7

 75
0
147
1.0
148
0.0
149
0.0
100
AcDbLayout
  1
Model
 70
1
 71
0
 10
0.0
 20
0.0
 11
12.0
 21
9.0
 12
0.0
 22
0.0
 32
0.0
 14
0.0
 24
0.0
 34
0.0
 15
0.0
 25
0.0
 35
0.0
146
0.0
 13
0.0
 23
0.0
 33
0.0
 16
1.0
 26
0.0
 36
0.0
 17
0.0
 27
1.0
 37
0.0
 76
0
330
1F
  0
LAYOUT
  5
26
100
AcDbPlotSettings
  1

  2
C:\Program Files\AutoCAD 2002\plotters\DWF ePlot (optimized for plotting).pc3
  4

  6

 40
0.0
 41
0.0
 42
0.0
 43
0.0
 44
0.0
 45
0.0
 46
0.0
 47
0.0
 48
0.0
 49
0.0
140
0.0
141
0.0
142
1.0
143
1.0
 70
688
 72
0
 73
0
 74
5
  7

 75
16
147
1.0
148
0.0
149
0.0
100
AcDbLayout
  1
Layout2
 70
1
 71
2
 10
0.0
 20
0.0
 11
12.0
 21
9.0
 12
0.0
 22
0.0
 32
0.0
 14
0.0
 24
0.0
 34
0.0
 15
0.0
 25
0.0
 35
0.0
146
0.0
 13
0.0
 23
0.0
 33
0.0
 16
1.0
 26
0.0
 36
0.0
 17
0.0
 27
1.0
 37
0.0
 76
0
330
23
  0
DICTIONARY
  5
B5
100
AcDbDictionary
281
1
  3
DIMASSOC
350
B7
  3
HIDETEXT
350
B6
  0
DICTIONARYVAR
  5
B6
100
DictionaryVariables
280
0
  1
2
  0
DICTIONARYVAR
  5
B7
100
DictionaryVariables
280
0
  1
1
  0
ENDSEC
  0
EOF
